<?xml version="1.0" encoding="UTF-8" standalone="no"?>
<!DOCTYPE svg PUBLIC "-//W3C//DTD SVG 1.1//EN" "http://www.w3.org/Graphics/SVG/1.1/DTD/svg11.dtd">
<svg version="1.1" xmlns="http://www.w3.org/2000/svg" xmlns:xlink="http://www.w3.org/1999/xlink" preserveAspectRatio="xMidYMid meet" viewBox="0 0 640 640" width="3102.99" height="3102.99"><defs><path d="M62.97 83C63.08 83.57 63.13 84.15 63.11 84.73C63.12 86.85 62.65 88.94 61.73 90.83C60.94 92.58 59.6 93.99 57.93 94.84C56.63 93.04 55.05 91.49 53.24 90.24C51.34 88.94 49.29 87.87 47.15 87.05C44.92 86.23 42.63 85.62 40.29 85.23C38.01 84.85 35.7 84.65 33.38 84.65C31.28 84.63 29.17 84.81 27.1 85.18C25.33 85.49 23.59 85.99 21.92 86.66C20.6 87.18 19.39 87.97 18.37 88.99C17.54 89.83 17.08 90.98 17.07 92.18C17.45 93.92 18.41 95.48 19.78 96.57C21.52 98.22 23.42 99.68 25.44 100.94C27.67 102.36 30.16 103.74 32.87 105.14C35.58 106.53 38.29 107.93 41 109.11C44.25 110.7 47.07 112.16 49.42 113.53C51.57 114.72 53.54 116.21 55.28 117.98C56.79 119.58 57.97 121.49 58.75 123.58C59.45 125.95 59.75 128.43 59.61 130.91C59.64 134.14 59.08 137.35 57.99 140.37C56.94 143.24 55.33 145.86 53.24 148.04C51.1 150.26 48.54 152.01 45.71 153.16C42.56 154.41 39.2 155.03 35.82 154.98C31.96 154.92 28.12 154.36 24.39 153.3C20.34 152.23 16.43 150.68 12.74 148.69C9.39 146.97 6.34 144.7 3.71 141.97C1.46 139.9 0.12 136.98 0 133.88C0.09 132.15 0.47 130.44 1.11 128.84C2.04 126.45 3.39 124.26 5.09 122.38C5.51 124.96 6.55 127.38 8.13 129.43C10.43 132.51 13.31 135.08 16.61 136.96C20 139 23.65 140.56 27.45 141.58C30.88 142.49 34.4 142.97 37.94 143C40.91 143.1 43.88 142.63 46.69 141.6C48.63 140.87 50.42 139.74 51.94 138.3C53.12 137.22 54.04 135.88 54.65 134.38C55.09 133.38 55.38 132.31 55.52 131.22C55.41 129.76 54.78 128.4 53.76 127.39C52.42 125.99 50.89 124.8 49.23 123.83C47.36 122.68 45.17 121.51 42.68 120.31C40.18 119.1 37.58 117.93 34.9 116.75C30.89 114.9 27.39 113.17 24.5 111.54C21.94 110.16 19.53 108.5 17.31 106.59C15.59 105.14 14.18 103.33 13.17 101.27C12.28 99.29 11.85 97.13 11.9 94.95C11.92 91.19 13.05 87.52 15.15 84.45C17.5 81 20.82 78.37 24.66 76.92C26.75 75.98 28.96 75.31 31.22 74.93C33.48 74.54 35.77 74.33 38.07 74.32C42.26 74.32 46.43 74.93 50.45 76.11C54.58 77.34 58.62 78.87 62.54 80.67C62.73 81.79 62.89 82.58 62.97 83Z" id="ah4HP5zII"></path><path d="M97.85 113.76C98.66 113.98 99.45 114.28 100.2 114.65C100.83 114.97 101.42 115.35 101.97 115.8C102.7 116.39 102.62 116.78 102.7 116.89C101.42 119.69 100.23 122.49 99.15 125.29C98.06 128.09 97.14 130.89 96.44 133.38C95.72 135.75 95.14 138.16 94.68 140.6C94.3 142.52 94.09 144.48 94.05 146.45C94.01 148 94.21 149.55 94.62 151.04C94.91 152.14 95.6 153.08 96.55 153.67C95.63 154.26 94.62 154.7 93.57 154.96C92.51 155.27 91.42 155.44 90.31 155.46C86.85 155.46 85.14 153.03 85.14 148.13C85.49 142.79 86.73 137.55 88.82 132.65C87.57 135.57 86.1 138.37 84.41 141.05C82.88 143.52 81.19 145.87 79.34 148.1C77.77 150.07 75.96 151.84 73.98 153.36C72.53 154.47 70.88 155.27 69.13 155.68C66.77 155.69 64.59 154.41 63.38 152.33C61.83 149.83 61.05 146.9 61.16 143.93C61.22 139.91 62 135.93 63.46 132.2C64.97 128.15 66.95 124.3 69.37 120.75C71.57 117.47 74.2 114.51 77.17 111.96C79.4 109.84 82.27 108.58 85.3 108.41C86.08 108.69 86.81 109.1 87.47 109.61C88.29 110.23 89.07 110.93 89.77 111.69C90.47 112.43 91.09 113.23 91.64 114.09C92.07 114.73 92.37 115.46 92.51 116.22C89.63 116.69 86.92 117.91 84.62 119.77C81.82 122.03 79.33 124.68 77.23 127.64C75.04 130.67 73.22 133.97 71.81 137.46C70.49 140.55 69.77 143.88 69.69 147.26C69.56 148.28 70.12 149.26 71.05 149.64C73.62 148.7 75.86 146.98 77.47 144.71C80.78 140.54 83.74 136.08 86.3 131.39C86.52 130.99 88.23 127.84 88.45 127.44C89.26 125.99 90.07 124.45 90.91 122.88C91.15 122.4 93.11 118.55 93.35 118.07C94.24 116.5 94.89 114.93 95.6 113.42C96.36 113.44 97.11 113.55 97.85 113.76Z" id="ap44pc5EA"></path><path d="M139.31 122.96C140.12 126.09 141.04 129.45 142.02 132.98C142.99 136.5 144.27 140.06 145.46 143.64C146.65 147.22 147.87 150.41 149.01 153.24C149.66 154.89 150.4 156.49 151.23 158.05C151.8 159.09 152.51 160.03 153.34 160.85C154.26 160.7 155.17 160.47 156.05 160.15C156.98 159.83 157.89 159.44 158.76 158.98C159.59 158.54 160.39 158.07 161.17 157.55C161.78 157.14 162.32 156.65 162.8 156.09C161 153.89 159.47 151.47 158.25 148.87C156.76 145.58 155.51 142.17 154.51 138.68C159.66 143.44 162.75 146.9 163.67 147.81C166.4 150.82 168.89 154.07 171.09 157.52C171.7 157.89 172.4 158.06 173.1 158C174.02 158.02 174.94 157.87 175.81 157.55C176.51 157.36 182.3 153.85 182.72 153.24C181.59 150.24 179.69 146.86 179.68 143.64C179.54 141.38 181.77 105.31 182.72 103.28C182.43 102.45 176.32 116.06 175.75 115.4C174.93 114.27 176.74 111.06 175.75 110.08C173.99 111.01 166.72 142.09 165.43 143.64C164.12 145.19 166.09 151.3 165.43 153.24C162.73 151.31 155.75 139.24 153.34 136.92C151.24 134.87 153.84 133.21 152.34 130.65C150.74 127.89 149.45 124.95 148.49 121.89C147.46 118.59 146.43 114.64 145.49 110.08C144.78 110.21 144.08 110.42 143.43 110.72C142.59 111.11 141.78 111.56 141.01 112.07C140.26 112.57 139.54 113.13 138.87 113.75C138.34 114.19 137.91 114.76 137.63 115.4C137.93 117.3 138.49 119.82 139.31 122.96Z" id="f3cittSjHU"></path><path d="M111.18 113.22C110.72 112.46 111.3 113.53 111.18 112.64C110.95 111.54 113.37 110.34 113.35 109.22C114.93 109.49 116.94 107.37 118.55 107.37C118.97 107.37 112.92 107.79 113.35 107.79C114.3 105.84 115.35 103.88 116.46 101.94C117.57 100.01 118.66 98.25 119.71 96.65C120.64 95.25 121.63 93.89 122.7 92.6C123.32 91.78 124.05 91.05 124.86 90.44C125.68 90.47 126.5 90.58 127.3 90.78C128.3 91.03 129.31 91.31 130.34 91.67C131.37 92.04 132.29 92.43 133.05 92.82C133.7 93.08 134.29 93.48 134.78 94C132.86 96.51 131.2 98.81 129.85 100.94C128.49 103.06 126.98 105.53 125.38 108.27C125.76 108.27 128.82 108.27 129.2 108.27C130.53 108.27 125.98 107.99 127.3 107.79C127.65 108.14 119.55 103.27 119.71 103.74C119.9 104.23 125.38 110.24 125.38 110.76C121.72 112.11 126.71 112.74 122.83 112.64C121.23 115.83 119.8 118.99 118.55 122.13C117.3 125.26 116.35 128.31 115.65 131.22C114.83 133.93 114.16 136.67 113.62 139.45C113.18 141.75 112.95 144.08 112.91 146.42C112.91 150.79 115.77 150.8 116.08 151.29C117.94 151.03 119.76 150.53 121.5 149.81C123.17 149.13 124.72 148.18 126.11 147.01C126.43 147.46 126.66 147.97 126.79 148.52C126.23 149.3 138.35 148.31 137.59 148.88C136.63 149.71 135.82 151.5 134.78 152.21C133.77 152.93 119.73 154.24 118.63 154.82C117.91 155.22 117.13 155.51 116.33 155.68C114.68 155.67 113.06 155.34 111.53 154.7C109.98 154.07 108.51 153.23 107.17 152.21C105.93 151.3 104.85 150.17 103.97 148.88C103.18 147.85 102.74 146.59 102.7 145.27C102.74 143.26 102.95 141.26 103.32 139.28C103.75 136.85 104.35 134.24 105.11 131.39C105.87 128.53 106.76 125.57 107.82 122.46C108.88 119.35 109.96 116.28 111.18 113.22C110.06 113.22 112.3 113.22 111.18 113.22Z" id="b16U0nugFr"></path><path d="M359.47 120.93C357.13 124.26 354.08 126.99 350.55 128.9C352.9 130.54 354.88 132.68 356.35 135.17C357.79 137.65 358.54 140.49 358.52 143.37C358.46 147.12 357.38 150.78 355.4 153.93C353.21 157.5 350.39 160.62 347.08 163.14C343.49 165.89 339.52 168.08 335.3 169.63C330.96 171.26 326.37 172.1 321.75 172.09C317.23 172.22 312.74 171.27 308.63 169.29C304.99 167.42 301.95 164.51 299.88 160.9C300.8 157.93 302.15 154.25 302.4 153.51C303.46 150.71 304.62 147.46 305.92 144.21C307.23 140.97 308.63 137.69 309.8 134.45C310.96 131.2 312.35 128.29 313.48 125.71C315.92 120.12 318.09 115.44 320.01 111.72C321.6 108.64 323.42 105.7 325.43 102.9C322.15 103.94 318.95 105.21 315.84 106.71C313.54 107.75 311.41 109.13 309.5 110.82C308.83 110.33 308.23 109.74 307.74 109.06C307.1 108.23 306.52 107.35 306.01 106.43C305.47 105.49 305.01 104.51 304.65 103.49C304.34 102.63 304.13 101.74 304.03 100.83C306.06 99.45 308.23 98.3 310.5 97.42C313.34 96.27 316.24 95.34 319.2 94.62C322.37 93.81 325.58 93.17 328.82 92.71C331.96 92.28 335.11 92.05 338.28 92.04C344.62 91.67 350.93 93.33 356.32 96.8C360.5 99.76 362.92 104.73 362.72 109.96C362.78 113.87 361.64 117.71 359.47 120.93ZM322.83 130.89C321.34 134.25 319.96 137.55 318.66 140.8C317.36 144.05 316.17 147.04 315.14 149.81C314.11 152.58 313.29 155.02 312.64 157.06C312.15 158.56 311.79 160.11 311.59 161.68C312.59 162.25 313.68 162.65 314.81 162.86C316.35 163.16 317.91 163.3 319.47 163.28C323.7 163.29 327.9 162.65 331.94 161.37C335.67 160.19 339.2 158.41 342.4 156.08C345.22 154.11 347.66 151.6 349.58 148.69C351.31 146.14 352.25 143.11 352.29 139.99C352.51 136 350.36 132.27 346.87 130.56C341.5 132.76 335.76 133.84 329.99 133.75C329.78 133.75 328.13 133.75 327.93 133.75C327.35 133.78 326.77 133.76 326.19 133.69C324.9 133 323.76 132.05 322.83 130.89ZM340.55 99.52C339.04 99.68 337.46 99.94 335.81 100.27C336.06 100.52 336.27 100.8 336.44 101.11C336.44 101.39 336.73 101.7 336.87 102.03C336.09 103.14 335.38 104.3 334.76 105.51C333.92 107.05 332.99 108.81 332.05 110.82C331.1 112.84 329.96 115.05 328.82 117.51C327.68 119.98 326.57 122.47 325.43 125.04C326.75 124.73 328.08 124.52 329.42 124.4C330.96 124.23 332.5 124.15 334.05 124.15C334.89 124.15 335.7 124.15 336.52 124.15C337.33 124.15 338.09 124.31 338.85 124.45C341.69 123.99 344.48 123.21 347.17 122.13C349.42 121.21 351.56 120.01 353.53 118.55C355.14 117.36 356.51 115.84 357.54 114.1C358.49 112.53 358.99 110.71 358.98 108.86C359.12 105.97 357.73 103.22 355.35 101.67C352.12 99.86 348.47 99.03 344.81 99.26C343.39 99.27 341.97 99.35 340.55 99.52Z" id="emJHSDu4T"></path><path d="M290.97 123.92C290.64 125.17 290.22 126.4 289.7 127.58C289.26 128.58 288.71 129.52 288.04 130.38C287.69 130.98 287.09 131.38 286.42 131.47C285.71 131.47 285.31 130.91 285.17 129.99C285.2 129.66 285.29 129.34 285.41 129.04C285.58 128.62 285.74 128.14 285.93 127.61C286.12 127.08 286.31 126.55 286.47 126.02C286.62 125.57 286.7 125.11 286.72 124.64C286.74 123.81 286.52 123 286.09 122.29C285.72 121.71 285.09 121.36 284.41 121.37C281.84 121.37 279.89 123.02 278.56 126.3C277 130.95 276.32 135.87 276.55 140.79C276.5 141.18 276.5 141.58 276.55 141.97C277.23 141.97 282.6 141.97 283.27 141.97C283.32 142.23 283.32 142.49 283.27 142.75C283.33 143.22 283.19 143.69 282.89 144.04C282.55 144.12 279.75 144.8 279.4 144.88C278.73 145.05 278.07 145.26 277.42 145.52C277.09 145.64 276.8 145.87 276.61 146.17C276.51 146.47 276.47 146.78 276.47 147.09C276.47 147.62 276.47 148.15 276.47 148.69C276.47 149.22 276.47 149.86 276.47 150.65C276.7 155.5 275.14 160.25 272.11 163.97C268.95 167.47 264.6 169.56 259.97 169.82C259.03 169.73 258.11 169.46 257.26 169.03C256.29 168.55 255.39 167.95 254.55 167.24C253.7 166.54 252.94 165.72 252.3 164.81C251.69 163.97 251.23 163.02 250.95 162.01C250.94 159.51 251.47 157.03 252.49 154.76C253.51 152.49 254.92 150.43 256.67 148.69C258.48 146.88 260.59 145.42 262.9 144.38C265.37 143.27 268.04 142.7 270.73 142.73C270.73 141.09 270.57 139.46 270.24 137.85C269.92 136.26 269.59 134.72 269.24 133.24C268.89 131.75 246.27 118.4 245.97 116.97C245.65 115.59 252.5 115.85 252.49 114.43C252.5 112.6 268.12 120.98 268.8 119.3C269.48 117.55 270.39 115.91 271.51 114.43C272.65 112.94 274 111.65 275.52 110.59C276.98 109.57 278.61 108.83 280.32 108.41C281.32 108.81 282.24 109.4 283.03 110.15C284.26 111.15 285.42 112.22 286.53 113.36C287.63 114.49 288.65 115.7 289.59 116.97C290.45 117.83 291.13 118.86 291.59 120C291.52 121.32 291.31 122.64 290.97 123.92ZM264.31 162.29C267.05 159.76 269.13 156.56 270.35 152.97C270.95 151.28 271.26 149.5 271.27 147.71C269.75 148 268.31 148.63 267.04 149.55C263.95 151.65 261.32 154.41 259.35 157.64C258.56 158.82 258.09 160.19 257.99 161.62C258.03 163.04 258.77 164.35 259.94 165.09C261.54 164.41 263.01 163.46 264.31 162.29Z" id="a3PPS2Oj6"></path><path d="M532.18 124.72C532.87 124.14 531.25 126.61 531.82 125.85C532.29 125.21 526.32 115.94 526.65 115.16C527.1 114.13 527.61 124.61 527.64 124.44C525.14 121.19 537.66 143.36 535.36 140.04C533.05 136.72 533.74 136.95 531.94 133.91C530.19 131.02 522.22 153.5 520.68 150.43C519.44 148.02 525.57 154.68 524.67 152.09C523.94 150.05 537.68 140.48 537.42 138.37C537.21 136.81 527.78 116.36 528.44 115.25C527.28 114.78 523.18 121.81 522.03 121.84C520.86 121.8 519.94 118.59 518.86 118.94C515.47 120.16 524.3 108.69 526.48 115.17C529.2 122.1 526.11 118.14 530.3 123.9C527.78 120.48 526.65 125.6 523.81 122.66C521.22 119.93 521.41 119.61 518.61 117.32C516.21 115.27 511.16 121.04 508.56 119.73C506.65 118.76 501.03 129.2 499.12 129.27C496.82 130.08 495.26 132.54 495.01 135.73C494.61 139.58 495.15 143.72 496.58 147.61C498.43 152.91 500.96 157.9 504.05 162.32C507.33 167.15 514.8 168.67 518.74 172.51C522.35 176.1 525.29 171.88 529.33 174.19C532.46 176.22 536.75 175.74 539.78 174.91C540.42 174.26 539.81 175.07 540.22 174.16C540.75 173.05 539.26 173.37 539.61 172.12C539.96 170.9 539.5 177.71 539.65 176.37C539.79 175.38 539.29 167.53 539.09 166.47C536.07 166.85 535.7 167.79 532.63 166.14C528.89 164.13 522.91 166.69 519.53 163.52C516.04 160.27 512.8 156.55 509.86 152.43C507.2 148.8 505.01 144.65 503.43 140.21C502.85 138.91 502.96 137.41 503.7 136.59C506.63 136.92 513.22 122.2 515.8 124.64C516.87 125.56 520.7 124.75 521.87 123.7C526.27 119.73 524.83 122.28 528.46 126.47C528.85 126.92 524.66 116.38 525.05 116.82C526.49 118.46 523.1 119.86 524.62 121.64C525.08 122.19 525.1 125.26 525.55 125.82C527.02 127.61 523.32 119.16 524.69 120.91C525.42 120.62 531.55 125.25 532.18 124.72Z" id="a1oV7W9bg0"></path><path d="M219.52 72.07C220.08 72.94 220.56 73.86 220.95 74.83C221.31 75.94 221.86 77.2 222.32 78.63C222.83 80.44 223.2 82.29 223.41 84.16C223.7 86.59 223.94 89.37 224.1 92.53C224.26 95.69 224.36 99.11 224.33 102.83C224.3 106.56 224.21 110.37 223.98 114.28C223.72 119.17 223.48 123.3 223.3 126.99C223.11 130.68 222.99 133.67 222.91 136.26C222.83 138.86 222.77 141 222.74 142.69C222.72 144.38 222.67 145.66 222.75 146.96C222.73 147.98 222.66 148.99 222.52 149.99C222.37 151.28 222.15 152.55 221.87 153.81C221.6 155.11 221.26 156.38 220.91 157.59C220.64 158.57 220.27 159.52 219.79 160.42C217.64 160.83 215.44 160.95 213.25 160.78C211.77 160.8 210.31 160.4 209.03 159.63C209.77 158.09 210.33 156.48 210.71 154.81C211.28 152.59 211.74 150.35 212.09 148.08C212.48 145.69 212.75 143.27 212.9 140.84C213.07 138.75 213.1 136.65 212.99 134.56C212.69 136.02 212.27 137.46 211.75 138.85C211.2 140.43 210.13 142.71 208.96 145.56C207.73 148.28 206.2 150.85 204.4 153.22C203.24 154.85 201.68 156.12 199.87 156.9C197.84 157.71 195.59 157.7 193.56 156.88C191.7 156.14 190.27 154.55 189.69 152.58C188.23 148.01 187.51 143.22 187.57 138.41C187.58 133.59 188.4 128.81 189.99 124.28C190.61 122.55 191.38 120.88 192.3 119.3C193.27 117.6 194.38 115.99 195.61 114.48C196.71 113.07 197.95 111.79 199.31 110.64C200.39 109.7 201.62 108.96 202.95 108.45C203.95 108.09 205.02 107.99 206.06 108.18C206.91 108.29 207.7 108.7 208.29 109.34C206.23 111.86 204.55 114.69 203.31 117.74C201.82 121.28 200.69 124.97 199.93 128.75C199.08 132.89 198.57 137.1 198.41 141.33C198.24 145.66 198.43 149.99 198.98 154.29C200.8 152.37 202.45 150.28 203.91 148.05C205.46 145.66 206.71 143.07 207.63 140.35C208.96 136.94 209.95 134.04 210.63 131.92C211.32 129.8 211.94 127.99 212.38 126.51C212.78 125.2 213.1 123.86 213.32 122.5C213.5 121.29 213.66 119.82 213.76 118.11C213.97 115.82 214.12 112.82 214.16 109.12C214.2 105.42 214.21 101.38 214.08 96.88C213.95 92.39 213.74 87.65 213.44 82.65C213.15 77.65 212.8 72.64 212.43 67.69C213.27 67.63 214.08 67.97 214.64 68.61C215.31 69 215.8 69.28 216.09 69.47C216.42 69.66 216.78 69.76 217.15 69.76C218.08 69.71 218.87 70.5 219.52 72.07Z" id="c2nYyw6Iyh"></path><path d="M369.75 118.25C371.74 122 374.75 125.5 378.54 128.47C375.29 128.99 372.36 130.1 369.96 131.7C367.6 133.29 365.98 135.45 365.28 137.95C364.42 141.2 364.82 144.76 366.42 148.21C368.18 152.11 370.82 155.86 374.18 159.26C377.85 162.98 382.11 166.36 386.83 169.27C391.67 172.31 397.02 174.75 402.61 176.48C403.79 176.87 418.56 175.79 418.97 170.63C419.23 167.45 412.15 142.6 397.75 96.09C390.57 97.14 384.52 97.99 379.59 98.64C373.79 99.62 369.62 103 368.56 107.58C367.51 110.93 367.93 114.67 369.75 118.25ZM411.6 140.57C412.57 144.02 413.41 147.38 414.17 150.67C414.94 153.95 415.63 156.98 416.19 159.76C416.74 162.53 417.11 164.93 417.39 166.94C417.62 168.42 417.66 169.88 417.51 171.31C416.15 171.43 414.74 171.36 413.32 171.12C411.38 170.81 409.46 170.34 407.57 169.73C402.45 168.16 397.53 166.03 392.96 163.42C388.73 161 384.91 158.14 381.62 154.94C378.69 152.18 376.37 149.11 374.78 145.88C373.32 143.03 372.94 140.07 373.67 137.37C374.41 133.85 377.93 131.44 382.59 131.27C388.54 135.18 395.21 138.26 402.23 140.35C402.48 140.42 404.47 141.04 404.72 141.12C405.41 141.36 406.12 141.56 406.83 141.72C408.57 141.61 410.19 141.22 411.6 140.57ZM398 106.89C399.79 107.6 401.63 108.41 403.55 109.32C403.19 109.44 402.86 109.61 402.58 109.81C402.51 110.05 402.08 110.2 401.83 110.44C402.49 111.69 403.06 112.95 403.52 114.22C404.15 115.87 404.82 117.73 405.47 119.82C406.11 121.91 406.94 124.25 407.7 126.8C408.46 129.34 409.18 131.91 409.92 134.55C408.4 133.8 406.85 133.11 405.25 132.5C403.43 131.78 401.58 131.13 399.71 130.55C398.69 130.24 397.71 129.93 396.72 129.63C395.74 129.32 394.78 129.18 393.83 129.02C390.5 127.55 387.32 125.83 384.34 123.9C381.84 122.26 379.55 120.42 377.53 118.43C375.87 116.79 374.6 114.98 373.79 113.09C373.03 111.38 372.88 109.63 373.36 108.04C373.92 105.49 376.28 103.64 379.55 103.2C383.91 102.85 388.54 103.5 392.91 105.08C394.63 105.62 396.33 106.22 398 106.89Z" id="gaigJxWdaH"></path><path d="M430.17 129.04C429.59 128.36 430.33 129.32 430.07 128.46C429.67 127.42 431.87 125.82 431.66 124.72C433.27 124.71 434.91 122.27 436.49 122C436.91 121.93 431.01 123.38 431.43 123.31C432.05 121.22 432.78 119.1 433.56 117.01C434.35 114.91 435.13 112.99 435.92 111.23C436.61 109.69 437.37 108.18 438.21 106.72C438.69 105.81 439.29 104.97 440 104.22C440.81 104.11 441.64 104.08 442.46 104.14C443.49 104.21 444.52 104.32 445.59 104.5C446.67 104.68 447.64 104.91 448.45 105.16C449.13 105.31 449.78 105.61 450.35 106.03C448.86 108.84 447.6 111.39 446.6 113.72C445.61 116.05 444.51 118.74 443.37 121.72C443.75 121.65 446.76 121.13 447.14 121.06C448.45 120.84 443.92 121.33 445.19 120.92C445.59 121.2 436.82 117.78 437.06 118.22C437.32 118.67 443.69 123.65 443.77 124.17C440.38 126.13 445.41 125.9 441.56 126.46C440.5 129.88 439.59 133.24 438.87 136.55C438.14 139.85 437.7 143.03 437.47 146.02C437.1 148.82 436.87 151.65 436.79 154.48C436.73 156.82 436.87 159.16 437.21 161.47C437.92 165.78 440.73 165.31 441.12 165.73C442.92 165.16 444.63 164.35 446.23 163.34C447.76 162.38 449.15 161.19 450.32 159.79C450.71 160.18 451.02 160.65 451.23 161.16C450.81 162.03 462.6 158.97 461.95 159.67C461.14 160.65 460.62 162.55 459.71 163.43C458.82 164.31 445.19 168.02 444.2 168.77C443.56 169.29 442.84 169.72 442.07 170.02C440.45 170.29 438.79 170.24 437.18 169.88C435.55 169.52 433.97 168.95 432.48 168.17C431.11 167.48 429.86 166.56 428.79 165.44C427.85 164.55 427.21 163.38 426.96 162.09C426.68 160.1 426.56 158.09 426.61 156.08C426.64 153.61 426.81 150.94 427.1 147.99C427.39 145.05 427.8 141.97 428.34 138.72C428.88 135.48 429.46 132.25 430.17 129.04C429.06 129.23 431.27 128.84 430.17 129.04Z" id="cix52WkbL"></path><path d="M469.84 129.04C469.27 128.36 470.01 129.32 469.75 128.46C469.35 127.42 471.54 125.82 471.34 124.72C472.94 124.71 474.58 122.27 476.17 122C476.59 121.93 470.69 123.38 471.11 123.31C471.73 121.22 472.45 119.1 473.24 117.01C474.02 114.91 474.81 112.99 475.6 111.23C476.28 109.69 477.04 108.18 477.88 106.72C478.37 105.81 478.97 104.97 479.67 104.22C480.49 104.11 481.31 104.08 482.13 104.14C483.16 104.21 484.19 104.32 485.27 104.5C486.34 104.68 487.31 104.91 488.13 105.16C488.81 105.31 489.46 105.61 490.02 106.03C488.53 108.84 487.27 111.39 486.28 113.72C485.28 116.05 484.18 118.74 483.05 121.72C483.42 121.65 486.44 121.13 486.82 121.06C488.13 120.84 483.6 121.33 484.87 120.92C485.27 121.2 476.49 117.78 476.73 118.22C476.99 118.67 483.37 123.65 483.45 124.17C480.06 126.13 485.08 125.9 481.24 126.46C480.17 129.88 479.27 133.24 478.54 136.55C477.82 139.85 477.37 143.03 477.15 146.02C476.78 148.82 476.55 151.65 476.46 154.48C476.4 156.82 476.55 159.16 476.89 161.47C477.59 165.78 480.41 165.31 480.8 165.73C482.59 165.16 484.31 164.35 485.91 163.34C487.44 162.38 488.82 161.19 490 159.79C490.39 160.18 490.7 160.65 490.91 161.16C490.48 162.03 502.27 158.97 501.62 159.67C500.81 160.65 500.3 162.55 499.39 163.43C498.5 164.31 484.87 168.02 483.88 168.77C483.23 169.29 482.51 169.72 481.75 170.02C480.12 170.29 478.47 170.24 476.86 169.88C475.23 169.52 473.65 168.95 472.16 168.17C470.79 167.48 469.54 166.56 468.47 165.44C467.53 164.55 466.88 163.38 466.63 162.09C466.36 160.1 466.24 158.09 466.28 156.08C466.32 153.61 466.49 150.94 466.78 147.99C467.07 145.05 467.47 141.97 468.01 138.72C468.56 135.48 469.13 132.25 469.84 129.04C468.74 129.23 470.95 128.84 469.84 129.04Z" id="a1PXwonwT2"></path><path d="M540.47 117.09C540.36 117.66 540.32 118.24 540.34 118.82C540.32 120.94 540.8 123.03 541.72 124.92C542.51 126.67 543.84 128.08 545.51 128.93C546.82 127.14 548.4 125.58 550.2 124.34C552.11 123.03 554.15 121.96 556.3 121.15C558.53 120.32 560.82 119.71 563.15 119.33C565.44 118.94 567.75 118.74 570.06 118.74C572.17 118.72 574.28 118.9 576.35 119.27C578.12 119.58 579.85 120.08 581.53 120.75C582.85 121.27 584.06 122.06 585.08 123.08C585.9 123.92 586.37 125.07 586.38 126.27C586 128.01 585.04 129.57 583.67 130.66C581.93 132.31 580.03 133.78 578 135.03C575.78 136.46 573.29 137.83 570.58 139.23C567.87 140.63 565.16 142.03 562.45 143.2C559.2 144.8 556.38 146.25 554.02 147.62C551.87 148.81 549.9 150.31 548.17 152.07C546.65 153.67 545.47 155.58 544.7 157.67C544 160.04 543.7 162.53 543.83 165C543.81 168.23 544.36 171.44 545.46 174.46C546.51 177.34 548.12 179.95 550.2 182.13C552.35 184.35 554.91 186.1 557.74 187.26C560.89 188.5 564.25 189.12 567.63 189.08C571.49 189.01 575.33 188.45 579.06 187.4C583.1 186.32 587.01 184.78 590.71 182.78C594.05 181.06 597.1 178.79 599.74 176.06C601.98 174 603.32 171.08 603.45 167.97C603.36 166.24 602.98 164.54 602.34 162.93C601.4 160.54 600.05 158.35 598.35 156.47C597.94 159.05 596.89 161.47 595.32 163.52C593.02 166.6 590.13 169.17 586.84 171.05C583.45 173.1 579.8 174.65 576 175.67C572.57 176.58 569.05 177.06 565.51 177.1C562.54 177.2 559.57 176.72 556.76 175.7C554.82 174.96 553.03 173.84 551.5 172.39C550.33 171.31 549.41 169.97 548.79 168.48C548.36 167.47 548.06 166.4 547.93 165.31C548.04 163.85 548.67 162.49 549.69 161.48C551.03 160.08 552.55 158.89 554.21 157.92C556.08 156.78 558.28 155.6 560.77 154.4C563.26 153.19 565.86 152.02 568.55 150.84C572.56 148.99 576.05 147.26 578.95 145.64C581.51 144.26 583.92 142.59 586.13 140.68C587.86 139.23 589.27 137.42 590.28 135.36C591.17 133.38 591.6 131.22 591.55 129.04C591.53 125.28 590.4 121.62 588.3 118.54C585.95 115.09 582.63 112.46 578.79 111.01C576.69 110.07 574.49 109.4 572.23 109.03C569.97 108.63 567.67 108.43 565.38 108.41C561.19 108.41 557.02 109.02 552.99 110.2C548.87 111.43 544.83 112.96 540.91 114.76C540.72 115.88 540.56 116.67 540.47 117.09Z" id="i2osetKo4g"></path><path d="M635.15 123.76C635.96 123.98 636.75 124.28 637.51 124.65C638.13 124.97 638.72 125.35 639.27 125.8C640 126.39 639.93 126.78 640 126.89C638.73 129.69 637.53 132.49 636.45 135.29C635.37 138.09 634.45 140.89 633.74 143.38C633.03 145.75 632.44 148.16 631.98 150.6C631.6 152.52 631.39 154.48 631.36 156.45C631.32 158 631.51 159.55 631.93 161.04C632.21 162.14 632.9 163.08 633.85 163.67C632.93 164.26 631.92 164.7 630.87 164.96C629.81 165.27 628.72 165.44 627.62 165.46C624.15 165.46 622.44 163.03 622.44 158.13C622.79 152.79 624.04 147.55 626.13 142.65C624.88 145.57 623.4 148.37 621.71 151.05C620.18 153.52 618.49 155.87 616.64 158.1C615.07 160.07 613.27 161.84 611.28 163.36C609.83 164.47 608.18 165.27 606.43 165.68C604.07 165.69 601.89 164.41 600.68 162.33C599.13 159.83 598.35 156.9 598.46 153.93C598.52 149.91 599.3 145.93 600.76 142.2C602.27 138.15 604.25 134.3 606.67 130.75C608.87 127.47 611.5 124.51 614.47 121.96C616.7 119.84 619.58 118.58 622.6 118.41C623.38 118.69 624.12 119.1 624.77 119.61C625.6 120.23 626.37 120.93 627.07 121.69C627.77 122.43 628.4 123.23 628.94 124.09C629.37 124.73 629.67 125.46 629.81 126.22C626.93 126.69 624.22 127.91 621.93 129.77C619.12 132.03 616.63 134.68 614.53 137.64C612.34 140.67 610.52 143.97 609.11 147.46C607.79 150.55 607.07 153.88 607 157.26C606.86 158.28 607.42 159.26 608.35 159.64C610.92 158.7 613.16 156.98 614.77 154.71C618.08 150.54 621.04 146.08 623.61 141.39C623.82 140.99 625.53 137.84 625.75 137.44C626.56 135.99 627.37 134.45 628.21 132.88C628.46 132.4 630.41 128.55 630.65 128.07C631.55 126.5 632.2 124.93 632.9 123.42C633.66 123.44 634.42 123.55 635.15 123.76Z" id="an8Gy0xwt"></path></defs><g><g><g><use xlink:href="#ah4HP5zII" opacity="1" fill="#fed136" fill-opacity="1"></use><g><use xlink:href="#ah4HP5zII" opacity="1" fill-opacity="0" stroke="#000000" stroke-width="1" stroke-opacity="0"></use></g></g><g><use xlink:href="#ap44pc5EA" opacity="1" fill="#fed136" fill-opacity="1"></use><g><use xlink:href="#ap44pc5EA" opacity="1" fill-opacity="0" stroke="#000000" stroke-width="1" stroke-opacity="0"></use></g></g><g><use xlink:href="#f3cittSjHU" opacity="1" fill="#fed136" fill-opacity="1"></use><g><use xlink:href="#f3cittSjHU" opacity="1" fill-opacity="0" stroke="#000000" stroke-width="1" stroke-opacity="0"></use></g></g><g><use xlink:href="#b16U0nugFr" opacity="1" fill="#fed136" fill-opacity="1"></use><g><use xlink:href="#b16U0nugFr" opacity="1" fill-opacity="0" stroke="#000000" stroke-width="1" stroke-opacity="0"></use></g></g><g><use xlink:href="#emJHSDu4T" opacity="1" fill="#fed136" fill-opacity="1"></use><g><use xlink:href="#emJHSDu4T" opacity="1" fill-opacity="0" stroke="#000000" stroke-width="1" stroke-opacity="0"></use></g></g><g><use xlink:href="#a3PPS2Oj6" opacity="1" fill="#fed136" fill-opacity="1"></use><g><use xlink:href="#a3PPS2Oj6" opacity="1" fill-opacity="0" stroke="#000000" stroke-width="1" stroke-opacity="0"></use></g></g><g><use xlink:href="#a1oV7W9bg0" opacity="1" fill="#fed136" fill-opacity="1"></use><g><use xlink:href="#a1oV7W9bg0" opacity="1" fill-opacity="0" stroke="#000000" stroke-width="1" stroke-opacity="0"></use></g></g><g><use xlink:href="#c2nYyw6Iyh" opacity="1" fill="#fed136" fill-opacity="1"></use><g><use xlink:href="#c2nYyw6Iyh" opacity="1" fill-opacity="0" stroke="#000000" stroke-width="1" stroke-opacity="0"></use></g></g><g><use xlink:href="#gaigJxWdaH" opacity="1" fill="#fed136" fill-opacity="1"></use><g><use xlink:href="#gaigJxWdaH" opacity="1" fill-opacity="0" stroke="#000000" stroke-width="1" stroke-opacity="0"></use></g></g><g><use xlink:href="#cix52WkbL" opacity="1" fill="#fed136" fill-opacity="1"></use><g><use xlink:href="#cix52WkbL" opacity="1" fill-opacity="0" stroke="#000000" stroke-width="1" stroke-opacity="0"></use></g></g><g><use xlink:href="#a1PXwonwT2" opacity="1" fill="#fed136" fill-opacity="1"></use><g><use xlink:href="#a1PXwonwT2" opacity="1" fill-opacity="0" stroke="#000000" stroke-width="1" stroke-opacity="0"></use></g></g><g><use xlink:href="#i2osetKo4g" opacity="1" fill="#fed136" fill-opacity="1"></use><g><use xlink:href="#i2osetKo4g" opacity="1" fill-opacity="0" stroke="#000000" stroke-width="1" stroke-opacity="0"></use></g></g><g><use xlink:href="#an8Gy0xwt" opacity="1" fill="#fed136" fill-opacity="1"></use><g><use xlink:href="#an8Gy0xwt" opacity="1" fill-opacity="0" stroke="#000000" stroke-width="1" stroke-opacity="0"></use></g></g></g></g></svg>